# xmcd
#
# Track frame offsets: 
#        150
#        22262
#        50382
#        77370
#        105519
#        123794
#
# Disc length: 2023 seconds
#
# Revision: 1
# Processed by: cddbd v1.5.2PL0 Copyright (c) Steve Scherf et al.
# Submitted via: ExactAudioCopyFreeDBPlugin 1.0
#
DISCID=3d07e506
DTITLE=Joni Haastrup - Wake Up Your Mind
DYEAR=2011
DGENRE=Afrobeat
TTITLE0=Free My People
TTITLE1=Greetings
TTITLE2=Wake Up Your Mind
TTITLE3=Champions And Superstars
TTITLE4=Do The "Funkro"
TTITLE5=Watch Out
EXTD=
EXTT0=
EXTT1=
EXTT2=
EXTT3=
EXTT4=
EXTT5=
PLAYORDER=
